<svg xmlns="http://www.w3.org/2000/svg" width="146" height="24" viewBox="0 0 146 24">
    <defs>
        <linearGradient id="a" x1="134.011%" x2="13.201%" y1="100%" y2="20.818%">
            <stop offset="0%" stop-color="#E836FA"/>
            <stop offset="100%" stop-color="#8241F3"/>
        </linearGradient>
        <linearGradient id="b" x1="100%" x2="0%" y1="50%" y2="50%">
            <stop offset="0%" stop-color="#8241F3" stop-opacity="0"/>
            <stop offset="100%" stop-color="#532A9B"/>
        </linearGradient>
    </defs>
    <g fill="none" fill-rule="evenodd">
        <path stroke="url(#a)" stroke-width="3.927" d="M10.255 17.89v-4.145h5.89a5.89 5.89 0 1 0-5.89-5.89v5.89H6.109a4.145 4.145 0 1 0 4.146 4.146z"/>
        <path fill="url(#b)" fill-opacity=".52" d="M12.218 11.782h2.618v3.927h-2.618z"/>
        <path fill="url(#b)" fill-opacity=".52" d="M5.673 11.782h2.618v3.927H5.673z" transform="matrix(-1 0 0 1 13.964 0)"/>
        <path fill="#FFF" d="M41.988 7.76a6.468 6.468 0 0 1 2.546 2.506c.615 1.076.923 2.33.923 3.759 0 1.43-.308 2.683-.923 3.76a6.468 6.468 0 0 1-2.546 2.505c-1.081.595-2.281.892-3.6.892-1.811 0-3.236-.56-4.273-1.68V24H30V7.075h3.93v1.602c1.02-1.206 2.506-1.81 4.458-1.81 1.319 0 2.519.298 3.6.892zm-1.714 9.068c.677-.697 1.015-1.632 1.015-2.803s-.338-2.106-1.015-2.803c-.677-.698-1.543-1.047-2.598-1.047s-1.921.349-2.598 1.047c-.677.697-1.016 1.632-1.016 2.803s.339 2.106 1.016 2.803c.677.698 1.543 1.047 2.598 1.047s1.92-.35 2.598-1.047zm20.733-1.666H50.272c.193.86.65 1.541 1.371 2.04.721.5 1.618.75 2.69.75.74 0 1.394-.108 1.966-.323a4.77 4.77 0 0 0 1.596-1.02l2.189 2.325c-1.336 1.498-3.288 2.248-5.856 2.248-1.6 0-3.015-.306-4.246-.917-1.231-.612-2.18-1.46-2.85-2.545-.667-1.086-1.001-2.317-1.001-3.695 0-1.36.33-2.588.989-3.682a6.868 6.868 0 0 1 2.717-2.558c1.151-.611 2.44-.917 3.864-.917 1.389 0 2.646.293 3.772.878a6.486 6.486 0 0 1 2.65 2.52c.642 1.093.963 2.364.963 3.81 0 .052-.026.414-.079 1.086zm-9.627-4.47c-.633.517-1.02 1.223-1.161 2.118h6.99c-.14-.878-.528-1.58-1.16-2.105-.634-.526-1.407-.788-2.322-.788-.932 0-1.714.258-2.347.775zm17.357-3.307c.835-.345 1.798-.517 2.888-.517v3.72a15.158 15.158 0 0 0-.923-.051c-1.178 0-2.102.323-2.77.969-.668.646-1.002 1.615-1.002 2.906v6.563h-4.115v-13.9h3.93v1.834c.493-.672 1.156-1.18 1.992-1.524zm16.315.374a6.468 6.468 0 0 1 2.545 2.507c.616 1.076.923 2.33.923 3.759 0 1.43-.307 2.683-.923 3.76a6.468 6.468 0 0 1-2.545 2.505c-1.082.595-2.282.892-3.6.892-1.812 0-3.236-.56-4.274-1.68V24h-4.114V7.075h3.93v1.602c1.02-1.206 2.505-1.81 4.457-1.81 1.32 0 2.52.298 3.6.892zm-1.715 9.07c.677-.698 1.016-1.633 1.016-2.804 0-1.171-.339-2.106-1.016-2.803-.677-.698-1.543-1.047-2.598-1.047s-1.92.349-2.598 1.047c-.677.697-1.015 1.632-1.015 2.803s.338 2.106 1.015 2.803c.677.698 1.543 1.047 2.598 1.047s1.921-.35 2.598-1.047zm20.734-1.667H93.335c.194.86.65 1.541 1.372 2.04.72.5 1.618.75 2.69.75.739 0 1.394-.108 1.965-.323a4.77 4.77 0 0 0 1.596-1.02l2.19 2.325c-1.337 1.498-3.289 2.248-5.856 2.248-1.6 0-3.016-.306-4.247-.917-1.23-.612-2.18-1.46-2.849-2.545-.668-1.086-1.002-2.317-1.002-3.695 0-1.36.33-2.588.99-3.682A6.868 6.868 0 0 1 92.9 7.785c1.152-.611 2.44-.917 3.864-.917 1.39 0 2.647.293 3.772.878a6.486 6.486 0 0 1 2.651 2.52c.642 1.093.963 2.364.963 3.81 0 .052-.027.414-.08 1.086zm-9.628-4.47c-.633.517-1.02 1.223-1.16 2.118h6.99c-.141-.878-.528-1.58-1.161-2.105-.633-.526-1.407-.788-2.321-.788-.932 0-1.715.258-2.348.775zm20.588 9.611c-.404.293-.9.513-1.49.66-.589.146-1.209.219-1.86.219-1.688 0-2.993-.422-3.917-1.266-.923-.844-1.384-2.084-1.384-3.72v-5.71h-2.19V7.384h2.19V4h4.115v3.385h3.534v3.1h-3.534v5.658c0 .586.153 1.038.461 1.357.308.319.743.478 1.306.478.65 0 1.204-.172 1.662-.517l1.107 2.842zm15.603-13.228v13.9h-3.903v-1.654a5.455 5.455 0 0 1-1.952 1.383 6.252 6.252 0 0 1-2.453.478c-1.864 0-3.341-.526-4.432-1.576-1.09-1.051-1.635-2.61-1.635-4.677V7.075h4.115v7.26c0 2.24.958 3.359 2.875 3.359.985 0 1.776-.315 2.374-.943.598-.629.897-1.563.897-2.804V7.075h4.114zm13.599 1.33C145.41 9.43 146 10.976 146 13.043v7.932h-3.851v-1.731c-.774 1.292-2.216 1.938-4.326 1.938-1.09 0-2.035-.181-2.835-.543-.8-.362-1.412-.861-1.834-1.498-.422-.638-.633-1.361-.633-2.17 0-1.293.497-2.309 1.49-3.05.994-.74 2.528-1.11 4.603-1.11h3.271c0-.879-.272-1.555-.818-2.029-.545-.473-1.362-.71-2.453-.71a7.3 7.3 0 0 0-2.228.349c-.73.232-1.35.546-1.86.943l-1.477-2.817c.774-.534 1.701-.947 2.783-1.24a12.71 12.71 0 0 1 3.336-.44c2.198 0 3.887.513 5.065 1.538zm-3.508 9.586a2.627 2.627 0 0 0 1.16-1.408v-1.421h-2.822c-1.688 0-2.532.542-2.532 1.627 0 .517.206.926.62 1.228.413.301.98.452 1.7.452.704 0 1.328-.16 1.874-.478z"/>
    </g>
</svg>
