<svg xmlns="http://www.w3.org/2000/svg" xmlns:xlink="http://www.w3.org/1999/xlink" width="162" height="32" viewBox="0 0 162 32">
    <defs>
        <path id="a" d="M0 .014h16.047v20.917H0z"/>
        <path id="c" d="M.033.036H16.08V16.03H.033z"/>
        <linearGradient id="e" x1="86.216%" x2="23.67%" y1="100%" y2="29.265%">
            <stop offset="0%" stop-color="#E836FA"/>
            <stop offset="100%" stop-color="#8241F3"/>
        </linearGradient>
    </defs>
    <g fill="none" fill-rule="evenodd">
        <path fill="#ffffff" d="M81.29 10.058V7.594c-1.967.13-3.627.891-5.057 2.316-1.58 1.573-2.347 3.423-2.347 5.657v7.995h2.463v-7.939c0-1.324.436-2.628 1.307-3.629.995-1.141 2.217-1.791 3.635-1.936M125.937 23.562v-2.465c-1.418-.145-2.64-.796-3.635-1.938-.87-1.001-1.307-2.306-1.307-3.63v-5.486h4.942V7.59h-4.942V2.667h-2.463v12.919c0 2.235.768 4.085 2.347 5.658 1.43 1.425 3.09 2.187 5.058 2.318M136.295 23.562h.021c2.234 0 4.087-.76 5.665-2.325 1.583-1.568 2.355-3.416 2.36-5.65l.018-7.993-2.463-.005-.018 7.992c-.004 1.802-.777 3.315-2.29 4.481-.914.703-2.056 1.047-3.21 1.047h-.022c-1.319 0-2.618-.43-3.616-1.289-1.325-1.14-1.995-2.577-1.991-4.264l.018-7.992-2.464-.006-.018 7.993c-.005 2.233.758 4.085 2.334 5.66 1.576 1.577 3.432 2.346 5.676 2.35"/>
        <g transform="translate(38.667 7.558)">
            <mask id="b" fill="#fff">
                <use xlink:href="#a"/>
            </mask>
            <path fill="#ffffff" d="M13.7 13.67c1.58-1.574 2.347-3.425 2.347-5.66 0-2.233-.768-4.084-2.346-5.658C12.122.779 10.265.014 8.023.014S3.925.779 2.346 2.352C.768 3.925 0 5.776 0 8.011v12.92h2.462V8.084c0-1.372.469-2.72 1.39-3.74 1.135-1.258 2.56-1.89 4.228-1.876a5.598 5.598 0 0 1 3.932 1.68c1.184 1.21 1.705 2.719 1.544 4.474a5.217 5.217 0 0 1-1.196 2.865c-1.149 1.37-2.612 2.067-4.337 2.067-.78 0-1.511-.145-2.185-.433v2.605a8.396 8.396 0 0 0 2.185.281c2.242 0 4.1-.764 5.678-2.338" mask="url(#b)"/>
        </g>
        <path fill="#ffffff" d="M58.79 14.108l.387-.87a5.664 5.664 0 0 1 5.172-3.362 5.662 5.662 0 0 1 5.172 3.362l.386.87H58.791zm13.542 1.398c0-4.682-4.087-8.431-8.895-7.897-3.663.406-6.611 3.342-7.02 6.988-.536 4.788 3.23 8.857 7.932 8.857a7.984 7.984 0 0 0 6.905-3.964h-2.92a5.652 5.652 0 0 1-9.45-2.56l-.204-.777H72.3a6.82 6.82 0 0 0 .032-.647zM96.573 21.235c1.578-1.572 2.345-3.42 2.345-5.653 0-2.232-.767-4.08-2.345-5.653-1.578-1.571-3.434-2.335-5.674-2.335s-4.097.764-5.674 2.335c-1.578 1.572-2.345 3.42-2.345 5.653v12.907h2.46V15.655c0-1.37.469-2.717 1.39-3.736 1.134-1.257 2.558-1.888 4.225-1.873 1.475.012 2.9.626 3.93 1.678 1.183 1.209 1.705 2.715 1.544 4.47a5.207 5.207 0 0 1-1.195 2.86c-1.149 1.37-2.611 2.065-4.335 2.065-.78 0-1.511-.145-2.184-.432v2.603c.692.186 1.425.28 2.184.28 2.24 0 4.096-.763 5.674-2.335M103.005 14.108l.386-.87a5.661 5.661 0 0 1 5.172-3.362 5.664 5.664 0 0 1 5.172 3.362l.386.87h-11.116zm13.54 1.398c0-4.682-4.086-8.431-8.895-7.897-3.662.406-6.61 3.342-7.02 6.988-.536 4.788 3.23 8.857 7.933 8.857a7.985 7.985 0 0 0 6.905-3.964h-2.92a5.651 5.651 0 0 1-9.45-2.56l-.205-.777h13.62a6.9 6.9 0 0 0 .033-.647z"/>
        <g transform="translate(145.877 7.558)">
            <mask id="d" fill="#fff">
                <use xlink:href="#c"/>
            </mask>
            <path fill="#ffffff" d="M16.061 16.03l.019-7.988c.004-2.233-.759-4.083-2.334-5.658C12.171.81 10.316.041 8.074.036h-.023c-2.23 0-4.083.76-5.66 2.323C.81 3.927.039 5.774.034 8.006c-.005 2.232.757 4.083 2.333 5.658 1.574 1.575 3.43 2.343 5.672 2.348h.02c.752 0 1.479-.092 2.166-.276l.006-2.602c-.675.286-1.402.414-2.187.427-1.488-.003-2.781-.525-3.844-1.55a5.556 5.556 0 0 1-1.704-3.936c-.014-1.781.718-3.283 2.171-4.45.94-.754 2.128-1.138 3.336-1.138h.011c1.318 0 2.615.43 3.613 1.287 1.324 1.138 1.995 2.575 1.991 4.262l-.018 7.99 2.462.005z" mask="url(#d)"/>
        </g>
        <path fill="url(#e)" d="M11.053 10.473C11.053 4.69 15.743 0 21.527 0S32 4.69 32 10.473c0 5.785-4.69 10.474-10.473 10.474h-2.938a.644.644 0 0 1-.644-.644V16.35c0-.355.288-.644.644-.644h2.938a5.233 5.233 0 1 0-5.233-5.233v4.948l-.004 5.655.004 2.777a8.147 8.147 0 1 1-8.149-8.147h.604c.356 0 .644.289.644.644v3.953a.644.644 0 0 1-.644.644h-.603a2.906 2.906 0 1 0 2.907 2.907v-2.907l-.005-5.24.005-5.234z"/>
    </g>
</svg>
