<?xml version="1.0" encoding="utf-8"?>
<!-- Generator: Adobe Illustrator 21.0.2, SVG Export Plug-In . SVG Version: 6.00 Build 0)  -->
<svg version="1.1" id="Layer_1" xmlns="http://www.w3.org/2000/svg" xmlns:xlink="http://www.w3.org/1999/xlink" x="0px" y="0px"
	 viewBox="0 0 533.1 100.6" style="enable-background:new 0 0 533.1 100.6;" xml:space="preserve">
<style type="text/css">
	.st0{fill:#FF5C6A;}
	.st1{fill:#F8F8F8;}
</style>
<g>
	<path class="st0" d="M425.9,96.5l43.3-94.8c0.7-1.5,2.4-2.1,3.9-1.4v0c1.5,0.7,2.1,2.4,1.4,3.9l-43.3,94.8
		c-0.7,1.5-2.4,2.1-3.9,1.4l0,0C425.9,99.7,425.2,98,425.9,96.5z"/>
	<g>
		<path class="st0" d="M532.1,82.7h-4.5c-0.6,0-1-0.4-1-1v-44c0-0.6,0.4-1,1-1h4.5c0.6,0,1,0.4,1,1v44
			C533.1,82.2,532.6,82.7,532.1,82.7z"/>
		<path class="st0" d="M488.6,38.7l19.9,42.6c0.3,0.7-0.2,1.4-0.9,1.4h-4.8c-0.4,0-0.7-0.2-0.9-0.6l-14-30.8L481.4,66h6.2
			c0.4,0,0.7,0.2,0.9,0.6l1.9,4.1c0.3,0.7-0.2,1.4-0.9,1.4h-10.7l-4.3,9.9c-0.2,0.4-0.5,0.6-0.9,0.6h-4.9c-0.7,0-1.2-0.7-0.9-1.4
			l19.1-42.6C487.1,37.9,488.2,37.9,488.6,38.7z"/>
	</g>
	<path class="st1" d="M204.5,79.9l-27.3-60.7c-0.7-1.6-2.9-1.6-3.6,0l-28.3,60.7c-0.6,1.3,0.3,2.8,1.8,2.8h5.9
		c0.8,0,1.5-0.5,1.8-1.2l20.4-44.9l9.4,21.7h-8.6c-0.9,0-1.7,0.5-2,1.3l-2.2,4.8c-0.6,1.3,0.4,2.8,1.8,2.8h14.9l6.2,14.2
		c0.3,0.7,1,1.2,1.8,1.2h6.1C204.1,82.7,205.1,81.2,204.5,79.9z"/>
	<path class="st1" d="M255.5,19.1l-23.2,0c-1.1,0-2,0.9-2,2v59.5c0,1.1,0.9,2,2,2h5.5c1.1,0,2-0.9,2-2l0-52l15.9,0
		c4.8,0,9.1,3,10.5,7.6c2.1,7.2-3.7,14.7-10.2,14.7h-5c-1.1,0-2,0.9-2,2v5.5c0,1.1,0.9,2,2,2h5c10.8,0,20-9.5,20.2-20.8
		C276.4,28.4,266.8,19.1,255.5,19.1z"/>
	<path class="st1" d="M400.3,60.1c9.2-1.9,16.4-10.6,16.4-20.8c0-11.1-9.5-20.2-20.6-20.2h-26.3c-1.1,0-2,0.9-2,2l0,39.4h0v20.2
		c0,1.1,0.9,2,2,2h5.5c1.1,0,2-0.9,2-2v-52l18.9,0c4.8,0,9.1,3,10.5,7.6c2.1,7.2-3.7,14.7-10.2,14.7h-10c-0.1,0-0.2,0-0.3,0
		c-1.3,0.2-1.8,1.8-1.1,2.8l19.2,28c0.4,0.5,1,0.9,1.6,0.9h6.8c1.6,0,2.6-1.9,1.6-3.2L400.3,60.1z"/>
	<path class="st1" d="M110.3,60.1c9.2-1.9,16.4-10.6,16.4-20.8c0-11.1-9.5-20.2-20.6-20.2H79.7c-1.1,0-2,0.9-2,2l0,39.4h0v20.2
		c0,1.1,0.9,2,2,2h5.5c1.1,0,2-0.9,2-2v-52l18.9,0c4.8,0,9.1,3,10.5,7.6c2.1,7.2-3.7,14.7-10.2,14.7h-10c-0.1,0-0.2,0-0.3,0
		c-1.3,0.2-1.8,1.8-1.1,2.8l19.2,28c0.4,0.5,1,0.9,1.6,0.9h6.8c1.6,0,2.6-1.9,1.6-3.2L110.3,60.1z"/>
	<path class="st1" d="M39.8,25.3c-6.2-4.5-12.5-6.1-23.5-6.1H2c-1.1,0-2,0.9-2,2v59.5c0,1.1,0.9,2,2,2h5.5c1.1,0,2-0.9,2-2V28.1h6.4
		c7.7,0,13.6,1.3,17.9,4.5c5.4,4.1,8.6,10.9,8.6,18.3c0,7.5-3.1,14.1-8.7,18.2c-3.4,2.6-7.7,3.9-13.1,4.4c-1,0.1-1.8,0.9-1.8,2
		c0,1.5,0,3.5,0,5.1c0,1.1,1,2,2.1,2c8.3-0.4,12.9-1.9,18.4-5.9c8.4-6,12.8-14.9,12.8-25.8C52.1,40.1,47.7,31.1,39.8,25.3z"/>
	<g>
		<path class="st1" d="M336.8,55.3c1.1,0,2-0.9,2-2v-5c0-1.1-0.9-2-2-2h-14.2c-1.1,0-2,0.9-2,2v5c0,1.1,0.9,2,2,2H336.8z"/>
		<path class="st1" d="M341.8,26.1v-5c0-1.1-0.9-2-2-2h-36c-1.1,0-2,0.9-2,2v59.5c0,1.1,0.9,2,2,2h36c1.1,0,2-0.9,2-2v-5.1
			c0-1.1-0.9-2-2-2h-28.4V28.1h28.4C340.9,28.1,341.8,27.2,341.8,26.1z"/>
	</g>
</g>
</svg>
